<svg xmlns="http://www.w3.org/2000/svg" viewBox="0 0 64 64">
  <defs>
    <linearGradient id="bg" x1="0" y1="0" x2="1" y2="1">
      <stop offset="0" stop-color="#1b2330"/>
      <stop offset="1" stop-color="#0b0e14"/>
    </linearGradient>
  </defs>
  <rect x="1" y="1" width="62" height="62" rx="14" fill="url(#bg)" stroke="#27303f" stroke-width="2"/>
  <!-- rising trend line -->
  <path d="M9 50 L22 40 L33 45 L54 16" fill="none" stroke="#3fb950" stroke-opacity=".45" stroke-width="3.5" stroke-linecap="round" stroke-linejoin="round"/>
  <!-- candlesticks -->
  <line x1="18" y1="23" x2="18" y2="51" stroke="#3fb950" stroke-width="3"/>
  <rect x="13" y="29" width="10" height="14" rx="2" fill="#3fb950"/>
  <line x1="32" y1="17" x2="32" y2="45" stroke="#f85149" stroke-width="3"/>
  <rect x="27" y="22" width="10" height="14" rx="2" fill="#f85149"/>
  <line x1="46" y1="9" x2="46" y2="38" stroke="#3fb950" stroke-width="3"/>
  <rect x="41" y="15" width="10" height="15" rx="2" fill="#3fb950"/>
  <!-- bitcoin accent -->
  <circle cx="50" cy="49" r="10" fill="#f7931a"/>
  <g stroke="#0b0e14" stroke-width="2.6" stroke-linecap="round" fill="none">
    <path d="M46.5 43.5 L46.5 54.5 M46.5 43.5 L51.5 43.5 A2.7 2.7 0 0 1 51.5 49 L46.5 49 M46.5 49 L52.2 49 A2.75 2.75 0 0 1 52.2 54.5 L46.5 54.5"/>
    <line x1="48.6" y1="41.2" x2="48.6" y2="43.4"/>
    <line x1="48.6" y1="54.6" x2="48.6" y2="56.8"/>
  </g>
</svg>
